<?xml version="1.0" encoding="UTF-8"?>
<svg version="1.1" xmlns="http://www.w3.org/2000/svg" width="497" height="525">
<path d="M0 0 C31.47403105 -0.06863334 62.94804206 -0.12162945 94.42213032 -0.15319599 C98.14909612 -0.15694751 101.87606177 -0.16083054 105.60302734 -0.16479492 C106.34491021 -0.16558185 107.08679307 -0.16636878 107.85115723 -0.16717956 C119.81879155 -0.18018651 131.78638205 -0.20381397 143.75399049 -0.23145839 C156.05992903 -0.25964445 168.36584483 -0.27620395 180.67181432 -0.28226548 C188.24782957 -0.28635476 195.8237209 -0.2992067 203.39969794 -0.3237494 C209.23690702 -0.34168075 215.07403905 -0.34333273 220.91127014 -0.33932304 C223.28539664 -0.34013994 225.65952838 -0.34599271 228.03362656 -0.35761642 C246.44577754 -0.44324598 265.14850276 0.25160825 282.875 5.75 C283.73319336 6.00676514 284.59138672 6.26353027 285.47558594 6.52807617 C293.62446809 9.04713838 301.35425016 12.2354465 309 16 C310.05960937 16.51651123 310.05960937 16.51651123 311.140625 17.04345703 C320.84381312 21.82408363 329.60913848 27.11113657 338 34 C338.53608887 34.43602539 339.07217773 34.87205078 339.62451172 35.32128906 C357.46356963 49.87597418 371.5620046 66.39869329 382 87 C382.32194336 87.63147949 382.64388672 88.26295898 382.97558594 88.91357422 C393.42546075 109.66892946 399.63421524 132.72041309 400 156 C400.03867187 156.99386719 400.07734375 157.98773438 400.1171875 159.01171875 C401.05596218 197.24070987 386.54003649 238.01923828 360.5625 266.25 C359.1887026 267.68828575 357.8148058 269.1266324 356.42236328 270.546875 C354.94225107 272.05899788 353.48484105 273.59109207 352.02734375 275.125 C345.84500138 281.55639645 339.47407227 287.07214665 332 292 C331.42830078 292.38365723 330.85660156 292.76731445 330.26757812 293.16259766 C314.07442063 303.9708877 296.87521475 312.13006693 278 317 C277.21963379 317.21027832 276.43926758 317.42055664 275.63525391 317.63720703 C254.66314806 323.03296374 232.4606981 321.37077424 211 321 C211.94373314 319.89449282 212.88811533 318.7895397 213.83276367 317.68481445 C214.35859543 317.06943314 214.88442719 316.45405182 215.42619324 315.82002258 C217.66885527 313.22650498 219.98657519 310.70639043 222.3125 308.1875 C223.27754274 307.1369015 224.24238378 306.08611769 225.20703125 305.03515625 C226.90815704 303.18439171 228.61401654 301.33851327 230.32421875 299.49609375 C236.10692829 293.19428999 241.3688723 286.56103142 246.59716797 279.80126953 C247.95881777 278.05287896 249.33690058 276.31916696 250.72265625 274.58984375 C261.9993506 260.49296063 271.94887634 245.93135177 280.77001953 230.17480469 C281.88293099 228.20699696 283.0231167 226.26032624 284.18359375 224.3203125 C298.59470489 199.99278375 311.29625041 170.74254482 304.4375 142.125 C298.5288128 122.91143673 286.66840208 109.0650562 269.0625 99.6875 C258.85674589 94.44183257 248.22128504 93.55979982 236.93579102 93.61523438 C235.56909231 93.61111739 234.20239712 93.60564992 232.83570862 93.59895325 C229.91551218 93.58731852 226.99550427 93.58471152 224.07528877 93.58930969 C219.43518304 93.59619339 214.79531909 93.58012251 210.15525818 93.56091309 C200.29101835 93.52322445 190.42680072 93.51030401 180.5625 93.5 C169.93843429 93.48887675 159.31448296 93.473111 148.690494 93.42928743 C144.84406401 93.4141184 140.99782912 93.40493917 137.15136909 93.41069031 C99.0279883 93.46428945 64.43689818 88.49875204 35 62 C34.22221191 61.31067383 34.22221191 61.31067383 33.42871094 60.60742188 C16.90214538 45.744882 4.15123197 24.70273142 -1 3 C-0.67 2.01 -0.34 1.02 0 0 Z " fill="#432DD6" transform="translate(1,66)"/>
<path d="M0 0 C-1.40300297 3.17124004 -3.05897084 5.30939874 -5.50453949 7.75622177 C-6.23531786 8.49221564 -6.96609624 9.22820951 -7.71901941 9.98650622 C-8.52503768 10.78806305 -9.33105596 11.58961988 -10.16149902 12.41546631 C-11.01525918 13.27234645 -11.86901935 14.12922659 -12.74865103 15.0120728 C-15.11959738 17.38962276 -17.49495943 19.76259914 -19.872298 22.13374734 C-22.4348778 24.69180815 -24.99170341 27.25560918 -27.54927063 29.81867981 C-32.55997716 34.83828713 -37.57608496 39.85246329 -42.5941397 44.86472359 C-46.67049766 48.93656879 -50.74490419 53.01035703 -54.81791687 57.0855484 C-55.68671998 57.95481121 -55.68671998 57.95481121 -56.57307467 58.84163488 C-57.74959762 60.01879727 -58.92611608 61.19596415 -60.10263008 62.37313548 C-71.1384667 73.41467714 -82.18042899 84.45007652 -93.2244882 95.48339286 C-102.70928966 104.95925394 -112.18882839 114.44035327 -121.66455078 123.92529297 C-132.66091146 134.93234506 -143.66049433 145.93616042 -154.66527605 156.93479371 C-155.83754928 158.10642982 -157.00981832 159.27807012 -158.18208313 160.44971466 C-158.75891078 161.02623376 -159.33573842 161.60275285 -159.93004569 162.19674222 C-164.00312042 166.26808697 -168.07386328 170.34175438 -172.14372253 174.41631317 C-177.09909928 179.37728602 -182.05799675 184.33470647 -187.02151 189.28753915 C-189.55588333 191.81663931 -192.0885998 194.34734341 -194.61704445 196.8823719 C-197.35214451 199.62448638 -200.09488215 202.35887571 -202.83850098 205.09246826 C-203.64451925 205.90294798 -204.45053752 206.71342769 -205.28098059 207.5484674 C-206.01175896 208.27403028 -206.74253734 208.99959316 -207.49546051 209.74714279 C-208.12850932 210.37986689 -208.76155812 211.01259099 -209.41379023 211.66448855 C-211 213 -211 213 -213 213 C-213.226875 213.556875 -213.45375 214.11375 -213.6875 214.6875 C-214.9939721 216.98937941 -216.48303706 218.54510144 -218.36157227 220.38354492 C-220.37587331 222.37083254 -222.34614926 224.39862318 -224.3203125 226.42578125 C-225.92169485 228.05486461 -227.52326195 229.68376637 -229.125 231.3125 C-229.93582031 232.14845703 -230.74664062 232.98441406 -231.58203125 233.84570312 C-232.36191406 234.63525391 -233.14179688 235.42480469 -233.9453125 236.23828125 C-234.65187988 236.96055908 -235.35844727 237.68283691 -236.08642578 238.42700195 C-238 240 -238 240 -241 240 C-241.04672142 229.63669098 -241.08206854 219.27340778 -241.10362434 208.91001415 C-241.11397965 204.09581419 -241.1279843 199.28168725 -241.15087891 194.4675293 C-241.17290639 189.80554315 -241.18463031 185.14362642 -241.18975449 180.48159218 C-241.19339743 178.71936262 -241.20050747 176.95713604 -241.21146011 175.19493675 C-241.30484275 159.52036523 -240.66492134 143.70544682 -236.8125 128.4375 C-236.49212769 127.13872925 -236.49212769 127.13872925 -236.1652832 125.8137207 C-233.86825326 116.89837834 -230.72497294 108.41079091 -227 100 C-226.69723145 99.31599121 -226.39446289 98.63198242 -226.08251953 97.92724609 C-209.57172182 61.40071162 -178.37292216 31.997943 -140.9375 17.6875 C-123.58205861 11.36206412 -106.03659498 8.71732825 -87.62647629 8.69503975 C-85.14354246 8.69130487 -82.66098354 8.6743932 -80.1781311 8.65428162 C-73.13021858 8.59951772 -66.08225594 8.56820893 -59.03417969 8.54370117 C-54.6931139 8.52771236 -50.35232387 8.49739288 -46.01140213 8.45893669 C-44.37460913 8.44740369 -42.7377667 8.44135738 -41.10093307 8.44125557 C-29.15421653 8.44024202 -18.41676113 7.26789954 -7.375 2.3125 C-2.17699115 0 -2.17699115 0 0 0 Z " fill="#432DD6" transform="translate(274,285)"/>
<path d="M0 0 C0.66 0 1.32 0 2 0 C2.226875 1.27875 2.45375 2.5575 2.6875 3.875 C5.2478855 16.42800114 8.51527469 28.08357641 14.64453125 39.375 C16 42 16 42 16 44 C16.66 44 17.32 44 18 44 C18 44.66 18 45.32 18 46 C18.66 46 19.32 46 20 46 C20 46.66 20 47.32 20 48 C20.66 48 21.32 48 22 48 C22 48.66 22 49.32 22 50 C22.66 50 23.32 50 24 50 C24 50.66 24 51.32 24 52 C24.66 52 25.32 52 26 52 C26 52.66 26 53.32 26 54 C26.99 54 27.98 54 29 54 C29 54.66 29 55.32 29 56 C29.53109375 56.11601563 30.0621875 56.23203125 30.609375 56.3515625 C33.58137306 57.15769269 36.38206349 58.25365042 39.25 59.375 C40.40242188 59.82101563 41.55484375 60.26703125 42.7421875 60.7265625 C44.62575244 61.46282409 46.50723599 62.20455746 48.3828125 62.9609375 C52.58840743 64.62668294 56.51919006 65.4513294 61 66 C61.33 66.33 61.66 66.66 62 67 C64.32817964 67.36760731 66.6618385 67.70241581 69 68 C69 68.66 69 69.32 69 70 C65.53630404 71.99762663 62.15798568 72.6823543 58.25 73.4375 C54.16471802 74.26898003 50.30341937 75.12043517 46.4375 76.6875 C43.2878134 77.89010761 41.31449209 78.31073363 38 78 C38 78.66 38 79.32 38 80 C35.09399739 81.25664978 33.20395416 82 30 82 C30 82.66 30 83.32 30 84 C29.01 84 28.02 84 27 84 C27 84.66 27 85.32 27 86 C26.01 86 25.02 86 24 86 C24 86.66 24 87.32 24 88 C23.34 88 22.68 88 22 88 C22 88.66 22 89.32 22 90 C21.34 90 20.68 90 20 90 C20 90.66 20 91.32 20 92 C19.34 92 18.68 92 18 92 C17.7110083 92.58144775 17.4220166 93.16289551 17.12426758 93.76196289 C16.43471852 95.13462222 15.73716218 96.5033387 15.02612305 97.86499023 C8.56704201 110.24062059 4.66160909 122.30966936 2 136 C0.06591797 135.19580078 0.06591797 135.19580078 -2 134 C-2.81799238 131.57025966 -3.38639292 129.37160557 -3.875 126.875 C-5.3840093 120.00569984 -7.48241685 113.58975291 -10.06982422 107.05419922 C-12 102.16350914 -12 102.16350914 -12 100 C-12.66 100 -13.32 100 -14 100 C-14.66 98.02 -15.32 96.04 -16 94 C-16.66 94 -17.32 94 -18 94 C-18 93.34 -18 92.68 -18 92 C-18.66 92 -19.32 92 -20 92 C-20 91.34 -20 90.68 -20 90 C-20.66 90 -21.32 90 -22 90 C-22 89.34 -22 88.68 -22 88 C-22.66 88 -23.32 88 -24 88 C-24 87.34 -24 86.68 -24 86 C-24.99 86 -25.98 86 -27 86 C-27 85.34 -27 84.68 -27 84 C-27.99 84 -28.98 84 -30 84 C-30 83.34 -30 82.68 -30 82 C-30.56976563 81.87238281 -31.13953125 81.74476562 -31.7265625 81.61328125 C-34.05970761 80.98389331 -36.15457788 80.13856818 -38.375 79.1875 C-47.29101505 75.56042287 -56.66776379 73.28903907 -66 71 C-66.99 70.67 -67.98 70.34 -69 70 C-69 69.34 -69 68.68 -69 68 C-67.2984375 67.7834375 -67.2984375 67.7834375 -65.5625 67.5625 C-62.19222799 67.38828522 -62.19222799 67.38828522 -61 66 C-59.989375 65.87625 -58.97875 65.7525 -57.9375 65.625 C-53.62889454 64.94109437 -50.02494037 63.60669717 -46 62 C-42.25443013 60.6314264 -40.03399757 60 -36 60 C-36 59.34 -36 58.68 -36 58 C-33.35261084 56.5393715 -32.10551666 56 -29 56 C-29 55.34 -29 54.68 -29 54 C-28.01 54 -27.02 54 -26 54 C-26 53.34 -26 52.68 -26 52 C-25.34 52 -24.68 52 -24 52 C-24 51.34 -24 50.68 -24 50 C-22.34997172 48.64613064 -20.6825613 47.31321858 -19 46 C-18.505 45.01 -18.505 45.01 -18 44 C-17.34 44 -16.68 44 -16 44 C-15.34 42.02 -14.68 40.04 -14 38 C-13.34 38 -12.68 38 -12 38 C-11.88398438 37.47535156 -11.76796875 36.95070312 -11.6484375 36.41015625 C-10.82347523 33.34388082 -9.72348713 30.41673025 -8.625 27.4375 C-5.98315325 20.09224978 -3.38216963 12.7190159 -2.4375 4.9375 C-2 2 -2 2 0 0 Z " fill="#0AB3CD" transform="translate(428,0)"/>
<path d="M0 0 C0.99 0 1.98 0 3 0 C3 0.66 3 1.32 3 2 C3.84304688 2.18369141 3.84304688 2.18369141 4.703125 2.37109375 C7.18986519 3.0519869 9.40514776 3.99352325 11.75 5.0625 C12.54921875 5.42472656 13.3484375 5.78695312 14.171875 6.16015625 C14.77515625 6.43730469 15.3784375 6.71445312 16 7 C13.27049225 8.36475387 11.03004728 8.06060095 8 8 C6.68 8 5.36 8 4 8 C4 7.34 4 6.68 4 6 C2.35 6 0.7 6 -1 6 C-0.67 4.02 -0.34 2.04 0 0 Z " fill="#1FB9D0" transform="translate(454,54)"/>
<path d="M0 0 C1.4540625 0.0309375 1.4540625 0.0309375 2.9375 0.0625 C2.9375 1.72916667 2.9375 3.39583333 2.9375 5.0625 C-6.47252278 6.57958428 -6.47252278 6.57958428 -11.0625 4.0625 C-11.0625 3.4025 -11.0625 2.7425 -11.0625 2.0625 C-9.928125 1.918125 -8.79375 1.77375 -7.625 1.625 C-3.97252634 1.04829363 -3.54680005 0.07238367 0 0 Z " fill="#54C9DA" transform="translate(370.0625,65.9375)"/>
<path d="M0 0 C-0.33 0.66 -0.66 1.32 -1 2 C-2.65 2 -4.3 2 -6 2 C-6 2.66 -6 3.32 -6 4 C-8.90600261 5.25664978 -10.79604584 6 -14 6 C-14 6.66 -14 7.32 -14 8 C-14.66 7.67 -15.32 7.34 -16 7 C-14.36656877 3.34880077 -13.47614532 2.18866135 -9.6875 0.6875 C-6.34030286 0.0634463 -3.39140385 -0.16543433 0 0 Z " fill="#46C1D3" transform="translate(472,76)"/>
<path d="M0 0 C0 0.66 0 1.32 0 2 C-3.63423209 4.32590854 -6.77088331 4.16265833 -11 4 C-10.67 3.01 -10.34 2.02 -10 1 C-6.52674819 -0.1577506 -3.63932552 -0.06866652 0 0 Z " fill="#5CC5D8" transform="translate(497,68)"/>
<path d="M0 0 C0.66 0 1.32 0 2 0 C1.67 2.64 1.34 5.28 1 8 C-0.32 8 -1.64 8 -3 8 C-3 7.34 -3 6.68 -3 6 C-4.32 5.67 -5.64 5.34 -7 5 C-5.68 4.67 -4.36 4.34 -3 4 C-3 3.34 -3 2.68 -3 2 C-2.01 2 -1.02 2 0 2 C0 1.34 0 0.68 0 0 Z " fill="#35BDD0" transform="translate(402,52)"/>
<path d="M0 0 C1.98 0 3.96 0 6 0 C6 1.66666667 6 3.33333333 6 5 C1.25 4.125 1.25 4.125 -1 3 C-0.67 2.01 -0.34 1.02 0 0 Z " fill="#33C1D6" transform="translate(367,66)"/>
<path d="M0 0 C3.03869411 1.51934706 3.64410306 3.98004772 5 7 C5 7.66 5 8.32 5 9 C3.35 9.33 1.7 9.66 0 10 C0 6.7 0 3.4 0 0 Z " fill="#3FBDD1" transform="translate(438,33)"/>
<path d="M0 0 C0.66 0.33 1.32 0.66 2 1 C0.75 2.5 0.75 2.5 -1 4 C-2.32 4 -3.64 4 -5 4 C-5.33 4.66 -5.66 5.32 -6 6 C-8.64 6 -11.28 6 -14 6 C-13.67 5.34 -13.34 4.68 -13 4 C-10.3125 3.18359375 -10.3125 3.18359375 -7 2.4375 C-3.18994327 1.84426216 -3.18994327 1.84426216 0 0 Z " fill="#67D6DF" transform="translate(388,60)"/>
<path d="M0 0 C1.32 0.33 2.64 0.66 4 1 C4 2.98 4 4.96 4 7 C2.68 6.34 1.36 5.68 0 5 C0 3.35 0 1.7 0 0 Z " fill="#71CFDA" transform="translate(426,129)"/>
<path d="M0 0 C2.64 0 5.28 0 8 0 C8.66 1.32 9.32 2.64 10 4 C8.51882199 3.71872579 7.04006751 3.42466268 5.5625 3.125 C4.73878906 2.96257812 3.91507812 2.80015625 3.06640625 2.6328125 C2.38449219 2.42398438 1.70257813 2.21515625 1 2 C0.67 1.34 0.34 0.68 0 0 Z " fill="#55CCDA" transform="translate(384,76)"/>
<path d="M0 0 C3.14737182 0.69941596 6.02588876 1.76078698 9 3 C6.29120665 4.35439668 3.99066732 4.06501451 1 4 C0.67 2.68 0.34 1.36 0 0 Z " fill="#58C9DB" transform="translate(461,58)"/>
<path d="M0 0 C0.66 0 1.32 0 2 0 C2 0.66 2 1.32 2 2 C2.66 2 3.32 2 4 2 C4 2.66 4 3.32 4 4 C4.66 4 5.32 4 6 4 C5.67 4.66 5.34 5.32 5 6 C4.01 6 3.02 6 2 6 C2 5.34 2 4.68 2 4 C1.34 4 0.68 4 0 4 C0 2.68 0 1.36 0 0 Z " fill="#57CEE2" transform="translate(446,46)"/>
<path d="M0 0 C1.32 0 2.64 0 4 0 C4 0.66 4 1.32 4 2 C3.34 2 2.68 2 2 2 C2 2.66 2 3.32 2 4 C1.34 4 0.68 4 0 4 C0 4.66 0 5.32 0 6 C-0.66 6 -1.32 6 -2 6 C-1.34 4.02 -0.68 2.04 0 0 Z " fill="#00B5C8" transform="translate(416,38)"/>
</svg>
